<svg width="43" height="52" viewBox="0 0 43 52" fill="none" xmlns="http://www.w3.org/2000/svg">
<g filter="url(#filter0_d)">
<path fill-rule="evenodd" clip-rule="evenodd" d="M21.4786 44.6667C23.104 44.6667 30.8444 34.9462 32.753 31.8498C35.6869 27.09 37.4982 24.2742 37.4982 19.0196C37.4982 10.1722 30.326 3 21.4786 3C12.6312 3 5.45898 10.1722 5.45898 19.0196C5.45898 24.3015 7.1374 27.0986 10.0615 31.8498C12.0995 35.1613 19.8532 44.6667 21.4786 44.6667Z" fill="#FFA412"/>
<path fill-rule="evenodd" clip-rule="evenodd" d="M21.4786 44.6667C23.104 44.6667 30.8444 34.9462 32.753 31.8498C35.6869 27.09 37.4982 24.2742 37.4982 19.0196C37.4982 10.1722 30.326 3 21.4786 3C12.6312 3 5.45898 10.1722 5.45898 19.0196C5.45898 24.3015 7.1374 27.0986 10.0615 31.8498C12.0995 35.1613 19.8532 44.6667 21.4786 44.6667Z" stroke="white" stroke-width="2"/>
</g>
<path fill-rule="evenodd" clip-rule="evenodd" d="M21.4688 27.0196C25.8925 27.0196 29.4786 23.4335 29.4786 19.0098C29.4786 14.5861 25.8925 11 21.4688 11C17.0451 11 13.459 14.5861 13.459 19.0098C13.459 23.4335 17.0451 27.0196 21.4688 27.0196Z" fill="white"/>
<defs>
<filter id="filter0_d" x="0.458984" y="0" width="42.0392" height="51.6667" filterUnits="userSpaceOnUse" color-interpolation-filters="sRGB">
<feFlood flood-opacity="0" result="BackgroundImageFix"/>
<feColorMatrix in="SourceAlpha" type="matrix" values="0 0 0 0 0 0 0 0 0 0 0 0 0 0 0 0 0 0 127 0"/>
<feOffset dy="2"/>
<feGaussianBlur stdDeviation="2"/>
<feColorMatrix type="matrix" values="0 0 0 0 0 0 0 0 0 0 0 0 0 0 0 0 0 0 0.3 0"/>
<feBlend mode="normal" in2="BackgroundImageFix" result="effect1_dropShadow"/>
<feBlend mode="normal" in="SourceGraphic" in2="effect1_dropShadow" result="shape"/>
</filter>
</defs>
</svg>
